HIERARCHY
ROOT Joint1
{
	OFFSET 0.000000 0.000000 0.000000
	CHANNELS 6 Xposition Yposition Zposition Xrotation Yrotation Zrotation
	JOINT Joint2
	{
		OFFSET -0.000000 0.000000 1.456275
		CHANNELS 6 Xposition Yposition Zposition Xrotation Yrotation Zrotation
		JOINT Joint3
		{
			OFFSET -0.000000 0.000002 1.471446
			CHANNELS 6 Xposition Yposition Zposition Xrotation Yrotation Zrotation
			JOINT Joint4
			{
				OFFSET 0.625745 0.000000 0.917755
				CHANNELS 6 Xposition Yposition Zposition Xrotation Yrotation Zrotation
				JOINT Joint5
				{
					OFFSET -0.629534 0.000001 0.940221
					CHANNELS 6 Xposition Yposition Zposition Xrotation Yrotation Zrotation
					JOINT Joint6
					{
						OFFSET -0.000001 0.113772 1.960660
						CHANNELS 6 Xposition Yposition Zposition Xrotation Yrotation Zrotation
						JOINT Joint7
						{
							OFFSET -0.669733 -0.113771 0.388340
							CHANNELS 6 Xposition Yposition Zposition Xrotation Yrotation Zrotation
							End Site
							{
								OFFSET 0.005509 0.005509 0.438980
							}
						}
					}
				}
			}
		}
	}
}
MOTION
Frames: 9
Frame Time: 0.041667
0.000000 0.000000 0.000000 -0.000000 1.019410 2.772799 -0.000000 -0.000000 1.456275 -0.000000 8.386058 0.000000 -0.000000 0.000002 1.471446 -0.000001 -1.133464 -37.507034 0.625745 0.000000 0.917755 0.000046 95.796511 -0.000063 -0.629533 0.000001 0.940221 -0.000005 1.709735 -43.735590 -0.000001 0.113773 1.960660 -88.303882 -213.310674 0.000005 -0.669733 -0.113771 0.388340 -1.380094 3.311227 -183.505791 
0.000000 0.000000 0.000000 -0.000000 1.019410 2.700006 -0.000000 0.000000 1.456275 0.000000 6.986427 0.000000 -0.000000 0.000002 1.471445 -0.000001 -1.133463 -36.524307 0.625745 0.000000 0.917755 0.000011 96.825376 -0.000039 -0.629534 0.000001 0.940221 0.000001 1.709736 -42.589064 -0.000001 0.113772 1.960661 -88.303882 -214.797934 -0.000001 -0.669733 -0.113771 0.388340 -1.365481 3.323884 -184.594468 
0.000000 0.000000 0.000000 -0.000000 1.019410 2.609811 -0.000000 0.000000 1.456275 0.000000 5.252167 -0.000000 -0.000000 0.000002 1.471446 -0.000001 -1.133463 -35.306634 0.625745 0.000000 0.917755 0.000027 98.100218 -0.000026 -0.629534 0.000001 0.940221 0.000000 1.709736 -41.168412 -0.000001 0.113772 1.960661 -88.303875 -216.640760 0.000000 -0.669733 -0.113771 0.388340 -1.347056 3.339173 -185.943472 
0.000000 0.000000 0.000000 -0.000000 1.019410 2.506946 -0.000000 -0.000000 1.456275 0.000000 3.274301 -0.000000 -0.000000 0.000002 1.471446 -0.000001 -1.133463 -33.917920 0.625745 0.000000 0.917755 0.000012 99.554126 -0.000008 -0.629533 0.000001 0.940221 -0.000004 1.709735 -39.548206 -0.000000 0.113772 1.960660 -88.303875 -218.742436 -0.000001 -0.669733 -0.113771 0.388340 -1.325608 3.356076 -187.481985 
0.000000 0.000000 0.000000 -0.000000 1.019410 2.408814 -0.000000 -0.000000 1.456275 -0.000000 1.387449 -0.000000 -0.000000 0.000002 1.471446 -0.000001 -1.133463 -32.593106 0.625745 0.000000 0.917755 0.000020 100.941125 -0.000025 -0.629533 0.000001 0.940221 -0.000002 1.709735 -38.002565 -0.000000 0.113772 1.960660 -88.303882 -220.747397 0.000002 -0.669733 -0.113771 0.388340 -1.304726 3.371660 -188.949725 
0.000000 0.000000 0.000000 -0.000000 1.019410 2.313885 -0.000000 -0.000000 1.456275 -0.000000 -0.437827 -0.000000 -0.000000 0.000002 1.471446 -0.000001 -1.133463 -31.311527 0.625745 0.000000 0.917755 0.000008 102.282875 0.000000 -0.629534 0.000001 0.940221 -0.000002 1.709736 -36.507358 -0.000001 0.113772 1.960660 -88.303875 -222.686939 0.000007 -0.669733 -0.113771 0.388340 -1.284159 3.386222 -190.369612 
0.000000 0.000000 0.000000 -0.000000 1.019410 2.217425 -0.000000 -0.000000 1.456275 0.000000 -2.292545 0.000000 -0.000000 0.000002 1.471445 -0.000001 -1.133462 -30.009273 0.625744 0.000000 0.917755 0.000005 103.646263 0.000001 -0.629534 0.000001 0.940221 0.000000 1.709735 -34.988033 -0.000001 0.113772 1.960660 -88.303882 -224.657749 0.000002 -0.669733 -0.113771 0.388339 -1.262889 3.400496 -191.812407 
0.000000 0.000000 0.000000 -0.000000 1.019410 2.120825 -0.000000 -0.000000 1.456275 -0.000000 -4.149953 0.000000 -0.000000 0.000002 1.471446 -0.000001 -1.133462 -28.705130 0.625745 0.000000 0.917755 0.000006 105.011631 -0.000006 -0.629534 0.000001 0.940221 -0.000001 1.709735 -33.466506 -0.000001 0.113772 1.960661 -88.303882 -226.631455 0.000004 -0.669733 -0.113771 0.388340 -1.241231 3.414247 -193.257348 
0.000000 0.000000 0.000000 -0.000000 1.019410 2.025616 -0.000000 -0.000000 1.456275 0.000000 -5.980613 0.000000 -0.000000 0.000002 1.471446 -0.000001 -1.133463 -27.419771 0.625744 0.000000 0.917755 0.000015 106.357336 -0.000004 -0.629533 0.000001 0.940221 0.000000 1.709735 -31.966890 -0.000000 0.113772 1.960660 -88.303875 -228.576707 0.000002 -0.669733 -0.113771 0.388340 -1.219554 3.427267 -194.681483 
